<?xml version="1.0" encoding="UTF-8" standalone="no"?>
<svg
   xmlns:dc="http://purl.org/dc/elements/1.1/"
   xmlns:cc="http://creativecommons.org/ns#"
   xmlns:rdf="http://www.w3.org/1999/02/22-rdf-syntax-ns#"
   xmlns:svg="http://www.w3.org/2000/svg"
   xmlns="http://www.w3.org/2000/svg"
   id="图层_1"
   data-name="图层 1"
   viewBox="0 0 116.84 21.04"
   version="1.1">
  <metadata
     id="metadata870">
    <rdf:RDF>
      <cc:Work
         rdf:about="">
        <dc:format>image/svg+xml</dc:format>
        <dc:type
           rdf:resource="http://purl.org/dc/dcmitype/StillImage" />
        <dc:title>导航栏-菜单-logo</dc:title>
      </cc:Work>
    </rdf:RDF>
  </metadata>
  <defs
     id="defs835">
    <style
       id="style833">.cls-1{fill:#e7352c;}.cls-2{fill:#333;}</style>
  </defs>
  <title
     id="title837">导航栏-菜单-logo</title>
  <path
     class="cls-1"
     d="m 31.069282,13.236015 a 0.78615351,0.78615351 0 1 1 -0.786153,-0.786154 0.78615351,0.78615351 0 0 1 0.786153,0.786154"
     id="path839"
     style="stroke-width:0.531185" />
  <path
     class="cls-1"
     d="M 37.926878,12.41799 A 8.1483749,8.1483749 0 0 0 31.021476,5.5125879 5.1684281,5.1684281 0 0 0 29.879428,6.3359244 v 0.7595942 a 6.4698309,6.4698309 0 0 1 6.464519,6.4592074 h 0.759595 a 5.4446442,5.4446442 0 0 0 0.823336,-1.136736"
     id="path841"
     style="stroke-width:0.531185" />
  <path
     class="cls-1"
     d="M 38.543052,10.032971 A 5.1099978,5.1099978 0 0 0 33.406495,4.9229728 c -0.180603,0 -0.355893,0 -0.531184,0.026559 L 32.75845,5.2894903 a 8.7911085,8.7911085 0 0 1 5.386214,5.3809017 l 0.339958,-0.122172 c 0,-0.169979 0.03187,-0.339958 0.03187,-0.531185"
     id="path843"
     style="stroke-width:0.531185" />
  <path
     class="cls-1"
     d="m 33.464926,16.077854 a 6.0767541,6.0767541 0 0 1 -6.076754,-6.050195 6.0342594,6.0342594 0 0 1 1.779469,-4.2972853 l 0.34527,0.3240227 a 5.6093115,5.6093115 0 0 0 0,7.9677716 5.6093115,5.6093115 0 0 0 7.967772,0 l 0.324022,0.324023 a 6.0289475,6.0289475 0 0 1 -4.339779,1.731663"
     id="path845"
     style="stroke-width:0.531185" />
  <path
     class="cls-1"
     d="m 33.395872,13.905308 a 3.5323789,3.5323789 0 0 0 -1.386393,-3.139302 3.4580131,3.4580131 0 0 0 -1.779469,-0.722412 0.32402273,0.32402273 0 0 1 -0.281528,-0.339958 0.31339903,0.31339903 0 0 1 0.34527,-0.2868398 4.1698007,4.1698007 0 0 1 3.718294,4.5575658 3.6386159,3.6386159 0 0 1 -0.138108,0.717099 l 0.924262,0.260281 a 5.1312452,5.1312452 0 0 0 0.796777,-0.302775 5.6518063,5.6518063 0 0 0 0.100925,-1.088929 5.8430328,5.8430328 0 0 0 -4.955954,-5.7686673 2.5709344,2.5709344 0 0 0 -0.929574,0 2.0238141,2.0238141 0 0 0 -1.003939,0.6214862 1.9866312,1.9866312 0 0 0 0.887079,3.1871091 4.6000604,4.6000604 0 0 0 0.499313,0.0903 v 0 a 1.8644587,1.8644587 0 0 1 1.55106,1.8379 1.8432113,1.8432113 0 0 1 -0.297464,1.003939 l 0.637422,0.409012 a 4.7328566,4.7328566 0 0 0 0.956133,0.159356 3.495196,3.495196 0 0 0 0.350582,-1.221725"
     id="path847"
     style="stroke-width:0.531185" />
  <rect
     class="cls-2"
     x="82.727005"
     y="6.6068287"
     width="1.1739185"
     height="7.8084164"
     id="rect849"
     style="stroke-width:0.531185" />
  <path
     class="cls-2"
     d="M 63.7159,11.153771 A 1.3332739,1.3332739 0 0 0 64.49143,9.8736152 V 8.0091565 A 1.4023279,1.4023279 0 0 0 64.077106,6.9733461 1.3810805,1.3810805 0 0 0 63.131597,6.6015168 h -3.388959 v 7.8243522 h 1.17923 V 11.29719 h 1.20579 a 1.0623696,1.0623696 0 0 1 1.062369,0.924262 l 0.462131,2.215041 h 1.285467 L 64.438312,12.35956 A 1.5935544,1.5935544 0 0 0 63.7159,11.18033 M 60.921868,7.7063812 v 0 h 2.018502 a 0.3983886,0.3983886 0 0 1 0.377142,0.4461952 V 9.7461308 A 0.3983886,0.3983886 0 0 1 62.94037,10.192326 h -2.018502 z"
     id="path851"
     style="stroke-width:0.531185" />
  <path
     class="cls-2"
     d="m 42.840337,6.978658 a 1.4182634,1.4182634 0 0 0 -0.414324,1.0623696 v 4.9931374 a 1.4023279,1.4023279 0 0 0 0.414324,1.03581 1.3917042,1.3917042 0 0 0 0.945509,0.371829 h 3.187109 V 13.326316 H 43.99832 a 0.40370045,0.40370045 0 0 1 -0.382453,-0.446195 v -2.007878 h 2.894957 V 9.7780019 H 43.599932 V 8.1525764 A 0.40370045,0.40370045 0 0 1 43.982385,7.7063812 H 46.95702 V 6.6068286 H 43.769911 A 1.4129516,1.4129516 0 0 0 42.824402,6.978658"
     id="path853"
     style="stroke-width:0.531185" />
  <path
     class="cls-2"
     d="m 86.477169,7.7063812 h 2.974635 V 6.6068286 H 86.264695 A 1.4129516,1.4129516 0 0 0 85.319186,6.978658 1.4395108,1.4395108 0 0 0 84.904862,8.0410276 v 6.3742174 h 1.173918 v -3.543002 h 2.926829 V 9.7780019 h -2.93214 V 8.1525764 a 0.40370045,0.40370045 0 0 1 0.382453,-0.4461952"
     id="path855"
     style="stroke-width:0.531185" />
  <path
     class="cls-2"
     d="M 51.397725,9.7780019 H 49.575761 A 0.41963599,0.41963599 0 0 1 49.166748,9.3583659 V 8.1525764 A 0.3983886,0.3983886 0 0 1 49.54389,7.7063812 h 2.916204 V 6.6068286 H 49.342039 A 1.4129516,1.4129516 0 0 0 48.39653,6.978658 1.4182634,1.4182634 0 0 0 47.982206,8.0410276 v 1.5988662 a 1.3757686,1.3757686 0 0 0 1.370457,1.3757682 h 1.827276 a 0.41963599,0.41963599 0 0 1 0.419636,0.419636 v 1.455447 a 0.40370045,0.40370045 0 0 1 -0.382453,0.446195 h -3.234916 v 1.099553 h 3.431454 a 1.3545212,1.3545212 0 0 0 1.359833,-1.412952 V 11.164394 A 1.3704568,1.3704568 0 0 0 51.397725,9.7780019"
     id="path857"
     style="stroke-width:0.531185" />
  <path
     class="cls-2"
     d="m 65.978747,6.978658 a 1.4182634,1.4182634 0 0 0 -0.414324,1.0623696 v 4.9931374 a 1.4023279,1.4023279 0 0 0 0.414324,1.03581 1.3917042,1.3917042 0 0 0 0.945509,0.371829 h 3.187109 V 13.326316 H 67.13673 a 0.3983886,0.3983886 0 0 1 -0.377141,-0.446195 v -2.007878 h 2.926828 V 9.7780019 H 66.738342 V 8.1525764 a 0.3983886,0.3983886 0 0 1 0.377141,-0.4461952 h 2.974635 V 6.6068286 H 66.903009 A 1.4129516,1.4129516 0 0 0 65.9575,6.978658"
     id="path859"
     style="stroke-width:0.531185" />
  <path
     class="cls-2"
     d="M 74.536135,9.7780019 H 72.714171 A 0.41963599,0.41963599 0 0 1 72.294535,9.3583659 V 8.1525764 a 0.3983886,0.3983886 0 0 1 0.377141,-0.4461952 h 2.926828 V 6.6068286 H 72.475138 A 1.4023279,1.4023279 0 0 0 71.53494,6.978658 1.4182634,1.4182634 0 0 0 71.120616,8.0410276 v 1.5988662 a 1.3704568,1.3704568 0 0 0 1.370457,1.3757682 h 1.821964 a 0.41963599,0.41963599 0 0 1 0.419636,0.419636 v 1.455447 a 0.3983886,0.3983886 0 0 1 -0.377141,0.446195 h -3.234916 v 1.099553 h 3.431454 a 1.3810805,1.3810805 0 0 0 0.940197,-0.377142 1.397016,1.397016 0 0 0 0.419636,-1.062369 V 11.137835 A 1.3704568,1.3704568 0 0 0 74.536135,9.7673782"
     id="path861"
     style="stroke-width:0.531185" />
  <path
     class="cls-2"
     d="M 80.294178,9.7780019 H 78.472214 A 0.41963599,0.41963599 0 0 1 78.052578,9.3583659 V 8.1525764 a 0.3983886,0.3983886 0 0 1 0.377141,-0.4461952 h 2.926828 V 6.6068286 H 78.238493 A 1.4129516,1.4129516 0 0 0 77.292984,6.978658 1.4182634,1.4182634 0 0 0 76.87866,8.0410276 v 1.5988662 a 1.3757686,1.3757686 0 0 0 1.370456,1.3757682 h 1.827276 a 0.41963599,0.41963599 0 0 1 0.419636,0.419636 v 1.455447 A 0.40370045,0.40370045 0 0 1 80.113575,13.33694 H 76.87866 v 1.099553 h 3.431453 a 1.3545212,1.3545212 0 0 0 1.359834,-1.412952 V 11.164394 A 1.3704568,1.3704568 0 0 0 80.294178,9.7780019"
     id="path863"
     style="stroke-width:0.531185" />
  <path
     class="cls-2"
     d="m 57.389489,6.6015168 h -3.553626 v 7.8243522 h 1.173918 v -3.038377 h 2.379708 a 1.3651449,1.3651449 0 0 0 0.940197,-0.37183 1.397016,1.397016 0 0 0 0.419636,-1.0623691 V 8.0091565 A 1.4076397,1.4076397 0 0 0 58.329686,6.9733461 1.3651449,1.3651449 0 0 0 57.389489,6.6015168 m 0.180603,3.2455391 a 0.3983886,0.3983886 0 0 1 -0.377141,0.4461951 h -2.18317 V 7.6957575 h 2.18317 a 0.3983886,0.3983886 0 0 1 0.377141,0.4461952 z"
     id="path865"
     style="stroke-width:0.531185" />
</svg>
